M48
METRIC,LZ,000.000
;FILE_FORMAT=3:3
;TYPE=PLATED
;Layer: PTH_Through
;EasyEDA v6.5.54, 2026-06-14 15:02:16
;bf0a83b6fdec42d488b6750593e86d14,92045125fbc1431fbb54086bcf6fd6f5,10
;Gerber Generator version 0.2
;Holesize 1 = 0.305 mm
T01C0.305
;Holesize 2 = 0.800 mm
T02C0.800
;Holesize 3 = 0.901 mm
T03C0.901
;Holesize 4 = 0.915 mm
T04C0.915
;Holesize 5 = 1.000 mm
T05C1.000
;Holesize 6 = 1.008 mm
T06C1.008
;Holesize 7 = 1.021 mm
T07C1.021
;Holesize 8 = 1.037 mm
T08C1.037
;Holesize 9 = 1.301 mm
T09C1.301
%
G05
G90
T01
X070050Y014238
X104287Y-012994
X105121Y-009665
X105468Y-003893
X106373Y-002951
X097377Y028575
T02
X075311Y044180
X075311Y042180
X023241Y002270
X023241Y000270
X118872Y039624
X113792Y039624
X116332Y037084
X116332Y042164
T03
X043307Y-004572
X045847Y-004572
X048387Y-004572
X050927Y-004572
X053467Y-004572
X056007Y-004573
T04
X078867Y031115
X078867Y028575
X078867Y026035
X078867Y023495
X078867Y020955
X078867Y018415
X078867Y015875
X078867Y013335
X078867Y010795
X078867Y008255
X078867Y005715
X078867Y003175
X078867Y000635
X078867Y-001905
X078867Y-004445
X104267Y-004445
X104267Y-001905
X104267Y000635
X104267Y003175
X104267Y005715
X104267Y008255
X104267Y010795
X104267Y013335
X104267Y015875
X104267Y018415
X104267Y020955
X104267Y023495
X104267Y026035
X104267Y028575
X104267Y031115
X115062Y017526
X115062Y014986
X115062Y012446
X030480Y041148
X030480Y023368
X071120Y041148
X071120Y023368
T05
X054301Y016652G85X054296Y016652
X054301Y014112G85X054296Y014112
X054301Y005192G85X054296Y005192
X054301Y002652G85X054296Y002652
X031301Y016652G85X031296Y016652
X031301Y002652G85X031296Y002652
T06
X028321Y-008001G85X028321Y-008001
X031121Y-008001G85X031121Y-008001
X033921Y-008001G85X033921Y-008001
T07
X060833Y011303
X060833Y008763
T08
X115062Y009906
T09
X022225Y037846
X022225Y032766
X017145Y032766
X017145Y037846
M30
