G04 Layer: BottomSilkscreenLayer*
G04 EasyEDA v6.5.54, 2026-06-14 15:02:16*
G04 bf0a83b6fdec42d488b6750593e86d14,92045125fbc1431fbb54086bcf6fd6f5,10*
G04 Gerber Generator version 0.2*
G04 Scale: 100 percent, Rotated: No, Reflected: No *
G04 Dimensions in millimeters *
G04 leading zeros omitted , absolute positions ,4 integer and 5 decimal *
%FSLAX45Y45*%
%MOMM*%

%ADD10C,0.2000*%
%ADD11C,0.2500*%
%ADD12C,0.0107*%

%LPD*%
D10*
X3289300Y3986784D02*
G01*
X3289300Y3843528D01*
X3244341Y3986784D02*
G01*
X3244341Y3843528D01*
X3244341Y3986784D02*
G01*
X3148838Y3843528D01*
X3148838Y3986784D02*
G01*
X3148838Y3843528D01*
X3042411Y3966210D02*
G01*
X3042411Y3843528D01*
X3103879Y3904995D02*
G01*
X2981197Y3904995D01*
X3289300Y2615184D02*
G01*
X3289300Y2471928D01*
X3244341Y2615184D02*
G01*
X3244341Y2471928D01*
X3244341Y2615184D02*
G01*
X3148838Y2471928D01*
X3148838Y2615184D02*
G01*
X3148838Y2471928D01*
X3103879Y2533395D02*
G01*
X2981197Y2533395D01*
X7134606Y3986784D02*
G01*
X7148322Y3979926D01*
X7161784Y3966210D01*
X7168641Y3952747D01*
X7175500Y3932173D01*
X7175500Y3898137D01*
X7168641Y3877563D01*
X7161784Y3864102D01*
X7148322Y3850386D01*
X7134606Y3843528D01*
X7107427Y3843528D01*
X7093711Y3850386D01*
X7079995Y3864102D01*
X7073138Y3877563D01*
X7066534Y3898137D01*
X7066534Y3932173D01*
X7073138Y3952747D01*
X7079995Y3966210D01*
X7093711Y3979926D01*
X7107427Y3986784D01*
X7134606Y3986784D01*
X7021322Y3986784D02*
G01*
X7021322Y3884421D01*
X7014718Y3864102D01*
X7001002Y3850386D01*
X6980427Y3843528D01*
X6966965Y3843528D01*
X6946391Y3850386D01*
X6932675Y3864102D01*
X6926072Y3884421D01*
X6926072Y3986784D01*
X6833108Y3986784D02*
G01*
X6833108Y3843528D01*
X6880859Y3986784D02*
G01*
X6785609Y3986784D01*
X6679184Y3966210D02*
G01*
X6679184Y3843528D01*
X6740397Y3904995D02*
G01*
X6617715Y3904995D01*
X7134606Y2615184D02*
G01*
X7148322Y2608326D01*
X7161784Y2594610D01*
X7168641Y2581147D01*
X7175500Y2560573D01*
X7175500Y2526537D01*
X7168641Y2505963D01*
X7161784Y2492502D01*
X7148322Y2478786D01*
X7134606Y2471928D01*
X7107427Y2471928D01*
X7093711Y2478786D01*
X7079995Y2492502D01*
X7073138Y2505963D01*
X7066534Y2526537D01*
X7066534Y2560573D01*
X7073138Y2581147D01*
X7079995Y2594610D01*
X7093711Y2608326D01*
X7107427Y2615184D01*
X7134606Y2615184D01*
X7021322Y2615184D02*
G01*
X7021322Y2512821D01*
X7014718Y2492502D01*
X7001002Y2478786D01*
X6980427Y2471928D01*
X6966965Y2471928D01*
X6946391Y2478786D01*
X6932675Y2492502D01*
X6926072Y2512821D01*
X6926072Y2615184D01*
X6833108Y2615184D02*
G01*
X6833108Y2471928D01*
X6880859Y2615184D02*
G01*
X6785609Y2615184D01*
X6740397Y2533395D02*
G01*
X6617715Y2533395D01*
D11*
X5715000Y3326129D02*
G01*
X5715000Y3135121D01*
X5715000Y3135121D02*
G01*
X5606034Y3135121D01*
X5545836Y3326129D02*
G01*
X5545836Y3135121D01*
X5545836Y3326129D02*
G01*
X5473191Y3135121D01*
X5400547Y3326129D02*
G01*
X5473191Y3135121D01*
X5400547Y3326129D02*
G01*
X5400547Y3135121D01*
X5331459Y3280663D02*
G01*
X5331459Y3289554D01*
X5322315Y3307842D01*
X5313172Y3316986D01*
X5294884Y3326129D01*
X5258561Y3326129D01*
X5240527Y3316986D01*
X5231384Y3307842D01*
X5222240Y3289554D01*
X5222240Y3271520D01*
X5231384Y3253231D01*
X5249672Y3226054D01*
X5340350Y3135121D01*
X5213095Y3135121D01*
X5044186Y3326129D02*
G01*
X5135118Y3326129D01*
X5144008Y3244087D01*
X5135118Y3253231D01*
X5107686Y3262376D01*
X5080508Y3262376D01*
X5053075Y3253231D01*
X5035041Y3235197D01*
X5025897Y3207765D01*
X5025897Y3189731D01*
X5035041Y3162300D01*
X5053075Y3144265D01*
X5080508Y3135121D01*
X5107686Y3135121D01*
X5135118Y3144265D01*
X5144008Y3153410D01*
X5153152Y3171444D01*
X4847843Y3262376D02*
G01*
X4856734Y3235197D01*
X4875022Y3216910D01*
X4902200Y3207765D01*
X4911343Y3207765D01*
X4938522Y3216910D01*
X4956809Y3235197D01*
X4965954Y3262376D01*
X4965954Y3271520D01*
X4956809Y3298697D01*
X4938522Y3316986D01*
X4911343Y3326129D01*
X4902200Y3326129D01*
X4875022Y3316986D01*
X4856734Y3298697D01*
X4847843Y3262376D01*
X4847843Y3216910D01*
X4856734Y3171444D01*
X4875022Y3144265D01*
X4902200Y3135121D01*
X4920488Y3135121D01*
X4947665Y3144265D01*
X4956809Y3162300D01*
X4678679Y3298697D02*
G01*
X4687824Y3316986D01*
X4715002Y3326129D01*
X4733290Y3326129D01*
X4760468Y3316986D01*
X4778756Y3289554D01*
X4787645Y3244087D01*
X4787645Y3198621D01*
X4778756Y3162300D01*
X4760468Y3144265D01*
X4733290Y3135121D01*
X4724145Y3135121D01*
X4696713Y3144265D01*
X4678679Y3162300D01*
X4669536Y3189731D01*
X4669536Y3198621D01*
X4678679Y3226054D01*
X4696713Y3244087D01*
X4724145Y3253231D01*
X4733290Y3253231D01*
X4760468Y3244087D01*
X4778756Y3226054D01*
X4787645Y3198621D01*
X4482338Y3298697D02*
G01*
X4500372Y3316986D01*
X4527804Y3326129D01*
X4564125Y3326129D01*
X4591304Y3316986D01*
X4609591Y3298697D01*
X4609591Y3280663D01*
X4600447Y3262376D01*
X4591304Y3253231D01*
X4573270Y3244087D01*
X4518659Y3226054D01*
X4500372Y3216910D01*
X4491481Y3207765D01*
X4482338Y3189731D01*
X4482338Y3162300D01*
X4500372Y3144265D01*
X4527804Y3135121D01*
X4564125Y3135121D01*
X4591304Y3144265D01*
X4609591Y3162300D01*
M02*
