G04 Layer: BottomLayer*
G04 EasyEDA v6.5.54, 2026-06-14 15:02:16*
G04 bf0a83b6fdec42d488b6750593e86d14,92045125fbc1431fbb54086bcf6fd6f5,10*
G04 Gerber Generator version 0.2*
G04 Scale: 100 percent, Rotated: No, Reflected: No *
G04 Dimensions in millimeters *
G04 leading zeros omitted , absolute positions ,4 integer and 5 decimal *
%FSLAX45Y45*%
%MOMM*%

%ADD10C,0.2540*%
%ADD11C,1.3000*%
%ADD12C,1.5161*%
%ADD13C,1.5000*%
%ADD14R,1.5000X1.5000*%
%ADD15C,1.5240*%
%ADD16C,0.0171*%
%ADD17R,1.7240X1.5240*%
%ADD18R,1.7240X1.7240*%
%ADD19C,1.2000*%
%ADD20C,2.0000*%
%ADD21R,1.5240X1.5240*%
%ADD22R,3.2000X2.0000*%
%ADD23O,3.199994X1.999996*%
%ADD24R,1.6000X1.6000*%
%ADD25C,1.6000*%
%ADD26C,0.6096*%

%LPD*%
D10*
X7005017Y1423794D02*
G01*
X7005017Y437182D01*
X7886702Y-444502D01*
X7112002Y4114797D02*
G01*
X7216167Y4114797D01*
X7216167Y4114797D02*
G01*
X7519367Y4417997D01*
X7531102Y4417997D01*
X7112002Y4062727D02*
G01*
X7112002Y4114797D01*
X7112002Y4062727D02*
G01*
X7112002Y4010632D01*
X5429887Y1665196D02*
G01*
X5617847Y1665196D01*
X5617847Y1665196D02*
G01*
X5617847Y2516477D01*
X7112002Y4010632D01*
X7112002Y2336797D02*
G01*
X7007837Y2336797D01*
X5429887Y1411196D02*
G01*
X6082235Y1411196D01*
X7007837Y2336797D01*
X5335907Y1411196D02*
G01*
X5429887Y1411196D01*
X5335907Y1411196D02*
G01*
X5241927Y1411196D01*
X2832102Y-800102D02*
G01*
X2324102Y-292102D01*
X2324102Y26997D01*
X4584727Y265198D02*
G01*
X4584727Y-457202D01*
X5241927Y1411196D02*
G01*
X4584727Y753996D01*
X4584727Y265198D01*
X4584727Y265198D02*
G01*
X3129892Y265198D01*
X11887202Y3962397D02*
G01*
X11754106Y3962397D01*
X11506202Y3714493D01*
X11506202Y1752597D01*
X7112002Y2336797D02*
G01*
X7112002Y3798897D01*
X7531102Y4217997D01*
X3129892Y1665196D02*
G01*
X2941932Y1665196D01*
X2941932Y1665196D02*
G01*
X2941932Y844826D01*
X2324102Y226997D01*
X10426702Y-444502D02*
G01*
X10430055Y-447855D01*
X10571101Y-447855D01*
X11633202Y614245D01*
X11633202Y3708397D01*
X10428734Y-1299390D02*
G01*
X10314078Y-1184734D01*
X10314078Y1220873D01*
X10426702Y1333497D01*
X10426702Y1587497D02*
G01*
X10269095Y1429890D01*
X10269095Y-1231902D01*
X10404680Y-1367487D01*
X10459214Y-1367487D01*
X10512097Y-1314604D01*
X10512097Y-966472D01*
X10426702Y1841497D02*
G01*
X10546819Y1721380D01*
X10546819Y-389308D01*
X10426702Y3111497D02*
G01*
X10272676Y2957471D01*
X10272676Y2083559D01*
X10365031Y1991205D01*
X10428074Y1991205D01*
X10637268Y1782010D01*
X10637268Y-295074D01*
X10544406Y3228286D02*
G01*
X9187334Y3228286D01*
X7927545Y1968497D01*
X7409284Y1968497D01*
X5229786Y-211000D01*
X5084930Y-211000D01*
X4838727Y-457202D01*
X10544406Y3228286D02*
G01*
X11278516Y3962397D01*
X11379202Y3962397D01*
X10426702Y2095497D02*
G01*
X10318676Y2203523D01*
X10318676Y2926306D01*
X10388170Y2995800D01*
X10458503Y2995800D01*
X10544406Y3081703D01*
X10544406Y3228286D01*
X9737702Y2857497D02*
G01*
X8362546Y1482341D01*
X6980760Y1482341D01*
X5092727Y-405691D01*
X5092727Y-457202D01*
X11633202Y4216397D02*
G01*
X11633202Y4063997D01*
X10426702Y2857497D01*
X11506202Y1244597D02*
G01*
X11506202Y1358770D01*
X11506202Y1358770D02*
G01*
X11417429Y1358770D01*
X10426702Y2349497D01*
X11506202Y1498597D02*
G01*
X11506202Y1602762D01*
X11506202Y1602762D02*
G01*
X11427437Y1602762D01*
X10426702Y2603497D01*
X3048002Y4114797D02*
G01*
X2552702Y4114797D01*
X2222502Y3784597D01*
X3048002Y2336797D02*
G01*
X3048002Y2440962D01*
X3048002Y2440962D02*
G01*
X2222502Y3266462D01*
X2222502Y3276597D01*
X6083302Y1130297D02*
G01*
X5975327Y1130297D01*
X5975327Y1130297D02*
G01*
X5975327Y1064638D01*
X5429887Y519198D01*
X6083302Y876297D02*
G01*
X5472203Y265198D01*
X5429887Y265198D01*
D11*
G01*
X7531100Y4417999D03*
G01*
X7531100Y4218000D03*
G01*
X2324100Y226999D03*
G01*
X2324100Y27000D03*
D12*
G01*
X2832100Y-800100D03*
G01*
X3112109Y-800100D03*
G01*
X3392093Y-800100D03*
D13*
G01*
X4330725Y-457200D03*
G01*
X4584725Y-457200D03*
G01*
X4838725Y-457200D03*
G01*
X5092725Y-457200D03*
G01*
X5346725Y-457200D03*
D14*
G01*
X5600700Y-457200D03*
D15*
G01*
X7886700Y3111500D03*
G01*
X7886700Y2857500D03*
G01*
X7886700Y2603500D03*
G01*
X7886700Y2349500D03*
G01*
X7886700Y2095500D03*
G01*
X7886700Y1841500D03*
G01*
X7886700Y1587500D03*
G01*
X7886700Y1333500D03*
G01*
X7886700Y1079500D03*
G01*
X7886700Y825500D03*
G01*
X7886700Y571500D03*
G01*
X7886700Y317500D03*
G01*
X7886700Y63500D03*
G01*
X7886700Y-190500D03*
G01*
X7886700Y-444500D03*
G01*
X10426700Y-444500D03*
G01*
X10426700Y-190500D03*
G01*
X10426700Y63500D03*
G01*
X10426700Y317500D03*
G01*
X10426700Y571500D03*
G01*
X10426700Y825500D03*
G01*
X10426700Y1079500D03*
G01*
X10426700Y1333500D03*
G01*
X10426700Y1587500D03*
G01*
X10426700Y1841500D03*
G01*
X10426700Y2095500D03*
G01*
X10426700Y2349500D03*
G01*
X10426700Y2603500D03*
G01*
X10426700Y2857500D03*
G01*
X10426700Y3111500D03*
D17*
G01*
X11506200Y1752600D03*
G01*
X11506200Y1498600D03*
D18*
G01*
X11506200Y1244600D03*
G01*
X11506200Y990600D03*
D19*
G01*
X11887200Y3962400D03*
G01*
X11379200Y3962400D03*
G01*
X11633200Y3708400D03*
G01*
X11633200Y4216400D03*
D20*
G01*
X2222500Y3784600D03*
G01*
X2222500Y3276600D03*
G01*
X1714500Y3276600D03*
G01*
X1714500Y3784600D03*
D21*
G01*
X3048000Y4114800D03*
G01*
X3048000Y2336800D03*
G01*
X7112000Y4114800D03*
G01*
X7112000Y2336800D03*
D22*
G01*
X5429884Y1665198D03*
G01*
X5429884Y1411198D03*
D23*
G01*
X5429884Y519201D03*
G01*
X5429884Y265201D03*
D22*
G01*
X3129889Y1665198D03*
D23*
G01*
X3129889Y265201D03*
D24*
G01*
X6083300Y1130300D03*
D25*
G01*
X6083300Y876300D03*
D26*
G01*
X7005015Y1423796D03*
G01*
X10428731Y-1299387D03*
G01*
X10512094Y-966470D03*
G01*
X10546816Y-389305D03*
G01*
X10637265Y-295071D03*
G01*
X9737699Y2857500D03*
M02*
