G04 Layer: TopSolderMaskLayer*
G04 EasyEDA v6.5.54, 2026-06-14 15:02:16*
G04 bf0a83b6fdec42d488b6750593e86d14,92045125fbc1431fbb54086bcf6fd6f5,10*
G04 Gerber Generator version 0.2*
G04 Scale: 100 percent, Rotated: No, Reflected: No *
G04 Dimensions in millimeters *
G04 leading zeros omitted , absolute positions ,4 integer and 5 decimal *
%FSLAX45Y45*%
%MOMM*%

%AMMACRO1*4,1,8,-0.4243,-0.4829,-0.454,-0.4529,-0.454,0.4531,-0.4243,0.4829,0.4241,0.4829,0.454,0.4531,0.454,-0.4529,0.4241,-0.4829,-0.4243,-0.4829,0*%
%AMMACRO2*4,1,8,-0.8212,-0.4013,-0.8509,-0.3713,-0.8509,0.3716,-0.8212,0.4013,0.8209,0.4013,0.8509,0.3716,0.8509,-0.3713,0.8209,-0.4013,-0.8212,-0.4013,0*%
%AMMACRO3*4,1,8,-0.8212,-0.7506,-0.8509,-0.7206,-0.8509,0.7209,-0.8212,0.7506,0.8209,0.7506,0.8509,0.7209,0.8509,-0.7206,0.8209,-0.7506,-0.8212,-0.7506,0*%
%AMMACRO4*4,1,8,-1.1209,-0.7506,-1.1506,-0.7206,-1.1506,0.7209,-1.1209,0.7506,1.1206,0.7506,1.1506,0.7209,1.1506,-0.7206,1.1206,-0.7506,-1.1209,-0.7506,0*%
%AMMACRO5*4,1,8,-0.7209,-0.9512,-0.7506,-0.9213,-0.7506,0.9215,-0.7209,0.9512,0.7206,0.9512,0.7506,0.9215,0.7506,-0.9213,0.7206,-0.9512,-0.7209,-0.9512,0*%
%AMMACRO6*4,1,8,-0.7708,-0.8,-0.8,-0.7705,-0.8,0.7708,-0.7708,0.8,0.7705,0.8,0.8,0.7708,0.8,-0.7705,0.7705,-0.8,-0.7708,-0.8,0*%
%AMMACRO7*4,1,8,-0.8832,-0.8128,-0.9129,-0.7828,-0.9129,0.7831,-0.8832,0.8128,0.8829,0.8128,0.9129,0.7831,0.9129,-0.7828,0.8829,-0.8128,-0.8832,-0.8128,0*%
%AMMACRO8*4,1,8,-0.8832,-0.9129,-0.9129,-0.8829,-0.9129,0.8832,-0.8832,0.9129,0.8829,0.9129,0.9129,0.8832,0.9129,-0.8829,0.8829,-0.9129,-0.8832,-0.9129,0*%
%AMMACRO9*4,1,8,-0.7831,-0.8128,-0.8128,-0.7828,-0.8128,0.7831,-0.7831,0.8128,0.7828,0.8128,0.8128,0.7831,0.8128,-0.7828,0.7828,-0.8128,-0.7831,-0.8128,0*%
%AMMACRO10*4,1,8,-1.621,-1.0508,-1.6507,-1.0208,-1.6507,1.0211,-1.621,1.0508,1.6208,1.0508,1.6507,1.0211,1.6507,-1.0208,1.6208,-1.0508,-1.621,-1.0508,0*%
%AMMACRO11*4,1,8,-0.8212,-0.8508,-0.8509,-0.8208,-0.8509,0.8211,-0.8212,0.8508,0.8209,0.8508,0.8509,0.8211,0.8509,-0.8208,0.8209,-0.8508,-0.8212,-0.8508,0*%
%ADD10C,1.4016*%
%ADD11C,1.6177*%
%ADD12MACRO1*%
%ADD13MACRO2*%
%ADD14MACRO3*%
%ADD15MACRO4*%
%ADD16MACRO5*%
%ADD17C,1.6000*%
%ADD18C,0.0132*%
%ADD19MACRO6*%
%ADD20C,1.6256*%
%ADD21MACRO7*%
%ADD22MACRO8*%
%ADD23C,1.3000*%
%ADD24C,2.1016*%
%ADD25MACRO9*%
%ADD26MACRO10*%
%ADD27O,3.301594X2.101596*%
%ADD28MACRO11*%
%ADD29C,1.7016*%

%LPD*%
D10*
G01*
X7531100Y4417999D03*
G01*
X7531100Y4218000D03*
G01*
X2324100Y226999D03*
G01*
X2324100Y27000D03*
D11*
G01*
X2832100Y-800100D03*
G01*
X3112109Y-800100D03*
G01*
X3392093Y-800100D03*
D12*
G01*
X3745623Y-177800D03*
G01*
X3594976Y-177800D03*
D13*
G01*
X12646660Y-1407160D03*
G01*
X12646660Y-1295400D03*
G01*
X12646660Y-1186180D03*
G01*
X12646660Y-1076960D03*
G01*
X12646660Y-965200D03*
G01*
X12646660Y-855980D03*
G01*
X12646660Y-746760D03*
G01*
X12646660Y-635000D03*
G01*
X12646660Y-525780D03*
D14*
G01*
X12585700Y-396239D03*
D15*
G01*
X11635739Y-396239D03*
D16*
G01*
X12595859Y-1877060D03*
D15*
G01*
X11635739Y-1965960D03*
D17*
G01*
X4330725Y-457200D03*
G01*
X4584725Y-457200D03*
G01*
X4838725Y-457200D03*
G01*
X5092725Y-457200D03*
G01*
X5346725Y-457200D03*
D19*
G01*
X5600687Y-457212D03*
D20*
G01*
X7886700Y3111500D03*
G01*
X7886700Y2857500D03*
G01*
X7886700Y2603500D03*
G01*
X7886700Y2349500D03*
G01*
X7886700Y2095500D03*
G01*
X7886700Y1841500D03*
G01*
X7886700Y1587500D03*
G01*
X7886700Y1333500D03*
G01*
X7886700Y1079500D03*
G01*
X7886700Y825500D03*
G01*
X7886700Y571500D03*
G01*
X7886700Y317500D03*
G01*
X7886700Y63500D03*
G01*
X7886700Y-190500D03*
G01*
X7886700Y-444500D03*
G01*
X10426700Y-444500D03*
G01*
X10426700Y-190500D03*
G01*
X10426700Y63500D03*
G01*
X10426700Y317500D03*
G01*
X10426700Y571500D03*
G01*
X10426700Y825500D03*
G01*
X10426700Y1079500D03*
G01*
X10426700Y1333500D03*
G01*
X10426700Y1587500D03*
G01*
X10426700Y1841500D03*
G01*
X10426700Y2095500D03*
G01*
X10426700Y2349500D03*
G01*
X10426700Y2603500D03*
G01*
X10426700Y2857500D03*
G01*
X10426700Y3111500D03*
D21*
G01*
X11506200Y1752600D03*
G01*
X11506200Y1498600D03*
D22*
G01*
X11506200Y1244600D03*
G01*
X11506200Y990600D03*
D23*
G01*
X11887200Y3962400D03*
G01*
X11379200Y3962400D03*
G01*
X11633200Y3708400D03*
G01*
X11633200Y4216400D03*
D24*
G01*
X2222500Y3784600D03*
G01*
X2222500Y3276600D03*
G01*
X1714500Y3276600D03*
G01*
X1714500Y3784600D03*
D25*
G01*
X3048000Y4114800D03*
G01*
X3048000Y2336800D03*
G01*
X7112000Y4114800D03*
G01*
X7112000Y2336800D03*
D26*
G01*
X5429885Y1665198D03*
G01*
X5429885Y1411198D03*
D27*
G01*
X5429884Y519201D03*
G01*
X5429884Y265201D03*
D26*
G01*
X3129889Y1665198D03*
D27*
G01*
X3129889Y265201D03*
D28*
G01*
X6083300Y1130287D03*
D29*
G01*
X6083300Y876300D03*
M02*
